PathFileType	4	(X/Y/Z)	Patient4_TMGait_0pt4_03_left_05.trc.trc
DataRate	CameraRate	NumFrames	NumMarkers	Units	OrigDataRate	OrigDataStartFrame	OrigNumFrames
75.268817204301	75.268817204301	6	33	mm	75.268817204301	71	       141
Frame#	Time	Sacral			L.Shoulder			Chest			R.Shoulder			Neck			R.ASIS			L.ASIS			R.Thigh.Superior			R.Thigh.Lateral			R.Thigh.Inferior			R.Patella			L.Thigh.Superior			L.Thigh.Lateral			L.Thigh.Inferior			L.Patella			L.Shank.Superior			L.Shank.Lateral			L.Shank.Inferior			R.Shank.Superior			R.Shank.Lateral			R.Shank.Inferior			R.Heel			R.Midfoot.Superior			R.Midfoot.Lateral			R.Toe			L.Heel			L.Midfoot.Lateral			L.Midfoot.Superior			L.Toe			L.Elbow			L.Wrist			R.Elbow			R.Wrist			
		X1	Y1	Z1	X2	Y2	Z2	X3	Y3	Z3	X4	Y4	Z4	X5	Y5	Z5	X6	Y6	Z6	X7	Y7	Z7	X8	Y8	Z8	X9	Y9	Z9	X10	Y10	Z10	X11	Y11	Z11	X12	Y12	Z12	X13	Y13	Z13	X14	Y14	Z14	X15	Y15	Z15	X16	Y16	Z16	X17	Y17	Z17	X18	Y18	Z18	X19	Y19	Z19	X20	Y20	Z20	X21	Y21	Z21	X22	Y22	Z22	X23	Y23	Z23	X24	Y24	Z24	X25	Y25	Z25	X26	Y26	Z26	X27	Y27	Z27	X28	Y28	Z28	X29	Y29	Z29	X30	Y30	Z30	X31	Y31	Z31	X32	Y32	Z32	X33	Y33	Z33	

71	7.030000000000	821.687032900299	1006.737446060709	432.917012174097	1020.012737061859	1431.971234392022	253.186567258260	1105.874571635169	1367.053811677612	425.246332097116	1005.704349542476	1443.079051495937	588.731441112727	992.816754404319	1497.305979640769	406.202599812178	1041.308431080040	945.075670610222	569.765386712115	1047.475347591854	963.018677532639	294.110001774953	1102.011689862772	756.155837105183	553.569388049944	1040.210810298344	642.137300797072	626.798197705938	1130.153288359296	593.990424354107	553.864408274502	1154.425008569343	515.107646426108	571.949833426733	1066.932261378423	740.294170095139	326.589631005002	964.788471598391	635.024901887330	259.129335182348	1032.734598608503	548.469848412002	325.437953714609	1022.283389764731	481.124485359521	334.198973225882	991.934880025609	412.102438446849	325.954498800121	893.926280603254	303.807787328157	275.049399210054	936.121797955801	190.031998077870	348.463279875554	1138.305917079580	430.573677806772	583.706235910249	1083.751815969279	319.594419940747	649.575269567987	1154.457460264192	232.238978199446	602.671501859826	1062.831131083254	48.090750553953	579.942618973607	1227.143503293334	117.914580356414	618.996003693857	1147.279945364621	44.875300305503	653.415489871443	1350.703668339770	78.089213390253	643.614316805042	802.169688492167	39.123393897156	396.141765317992	873.666109398220	35.143577500243	313.217594231871	958.177833288967	95.547013637576	338.890599130867	1085.831960172996	42.017170165072	306.602263435300	1068.239332805043	1095.266547876886	110.958871430575	1291.167148531616	959.787356201078	138.857109725126	873.377311592960	1130.008913751480	712.840036532916	873.681640270458	871.250777972782	751.515025581438	
72	7.043285714286	823.018475918544	1005.393226454113	435.424927161187	1018.489478468659	1431.280439811848	255.375929891361	1105.090014562855	1367.112093481565	427.382761250108	1004.584079407502	1442.609322437494	590.973226099922	991.543716436518	1496.623189716431	408.403338961205	1043.048697310199	943.983142317785	571.687125015973	1048.968083630886	962.856107046346	296.126784459673	1102.784939804152	753.427454675460	555.067852294766	1038.758589103977	639.568517300558	626.842944647953	1128.263718643044	591.104137073487	553.849090381017	1151.394220565308	511.970508082316	571.184760065619	1066.911192649199	739.383100036681	327.806445933388	963.342043073038	634.948543606283	260.474503628303	1030.519638495368	547.676801748913	326.331716775715	1019.514724193596	480.354309873308	335.016611353073	988.710260254972	411.634844226462	326.647487598049	889.796210033087	304.162929061638	275.674306646946	931.423150453637	189.813456131480	348.651383818107	1134.338128320056	426.949497341314	582.663859949142	1078.055887189074	316.441574438203	647.837082688529	1147.524094190156	228.364791195354	600.619769756657	1053.195440696094	46.160391862246	577.516237847109	1218.218272719405	113.631357554397	616.201769240123	1137.439549685508	42.383750133533	651.212863527526	1341.395935693700	72.370082125150	641.314487532812	796.822898086352	39.203124320102	396.109590767424	868.316729232707	35.167525111937	313.223677330731	952.853376977986	95.532141734836	338.903989487546	1080.475701939962	41.944462414019	306.602717771887	1066.361155102881	1093.815056375339	114.295347077490	1288.923748856334	957.622692051793	142.126109673170	874.053849041036	1128.441527385030	714.218815049951	877.324443431846	869.215001187384	750.751004111512	
73	7.056571428571	824.397543515800	1004.054138417974	438.073392710175	1016.975035227301	1430.594078853917	257.742940909417	1104.346578389902	1367.192687893027	429.689541476666	1003.499936618998	1442.129504131339	593.407965867018	990.290844212278	1495.964333019400	410.801594423300	1044.871720302102	943.018135595778	573.750382438185	1050.620254728312	962.726734889622	298.251384915424	1103.774338758514	750.910744059073	556.534156340418	1037.642826901007	637.273468270233	626.867057691275	1126.698496938615	588.588956502713	553.723113321585	1148.708224179347	509.104610961179	570.247197601303	1067.069673183269	738.483703674611	329.015921060162	961.994378702811	634.894155965231	261.940853755681	1028.472100931578	546.913984426223	327.288704101648	1016.948623807275	479.567477846842	335.922539800021	985.635786877748	411.166376309694	327.432348802578	885.761777960844	304.583741843489	276.386078845326	926.785386459877	189.616006170687	348.855247569478	1130.697072262864	423.533411165548	581.593653147418	1072.651490458327	313.574034623021	646.206469367556	1140.665466912090	224.668126668382	598.572384400488	1043.299616218504	44.586721927114	575.359676412984	1209.154438407340	109.538893208374	613.362710839969	1127.410148480037	40.282996332918	649.209557824438	1331.956379254966	66.733149720995	638.943524562733	791.481688678426	39.320978007943	396.069656425744	862.977883267713	35.213363151504	313.238086058104	947.542003494602	95.537575413171	338.916333578345	1075.124738528049	41.853685900839	306.599510325691	1064.089537222902	1092.258057916736	117.844008365690	1285.940024073992	954.690936855954	145.328906570469	875.355667189198	1126.596343522034	715.908215790168	882.356776902829	866.949865078928	750.174241840785	
74	7.069857142857	825.785224188109	1002.791124121225	440.818361637241	1015.551969931996	1429.962105456196	260.279948879074	1103.678021593556	1367.304256619300	432.164783766988	1002.493571383969	1441.673933547731	596.019893330283	989.123961565562	1495.375559845933	413.387721652790	1046.694571091311	942.246009174138	575.961273666314	1052.391604268327	962.652145912551	300.477298585756	1104.912846851119	748.732953918995	558.004576053913	1036.895822169988	635.364024652927	626.964135559989	1125.504662287831	586.573284899623	553.576726029124	1146.429175933458	506.657471585772	569.255187509053	1067.377993532104	737.629196421814	330.243091041106	960.760624746945	634.871272668826	263.539828388356	1026.635504335125	546.200282027930	328.322357076935	1014.645470188472	478.768440492815	336.915744351514	982.749297562301	410.706106422540	328.311554774233	881.845710071594	305.090026298569	277.194233266410	922.221396479426	189.452329053736	349.075146982560	1127.536920612560	420.500696021371	580.625302807424	1067.851225061097	311.122013096782	644.860802278526	1134.258967051591	221.352887110332	596.684963588420	1033.737732322496	43.399566293451	573.605254952608	1200.452959009874	105.917797427660	610.682094403180	1117.790320602104	38.662407448045	647.527185560931	1322.921475361657	61.617303723938	636.670670456985	786.147972716061	39.501523374272	396.019451340312	857.654863382078	35.288410487791	313.262774221542	942.255691024797	95.567919564612	338.922776943336	1069.784789223618	41.735808639240	306.590127164913	1061.418616303520	1090.640708641077	121.616664718524	1282.170406657352	951.007239259662	148.426807200138	877.247596427222	1124.559773376951	717.905721314882	888.739262525881	864.591133536033	749.831373777260	
75	7.083142857143	827.142750667529	1001.673820446695	443.621789107015	1014.297549313629	1429.437507004844	262.973291078459	1103.111481750977	1367.457384296024	434.800380126107	1001.598871920718	1441.279972595341	598.784922350863	988.098389841636	1494.900299620920	416.144504217489	1048.436787747932	941.720647551084	578.329760673543	1054.216775743573	962.644930377168	302.810138838057	1106.156379583004	747.021244110841	559.515090079193	1036.582882125265	633.931981438519	627.230438374970	1124.749626911248	585.162423749474	553.502488967992	1144.630059772635	504.734698200102	568.352691042941	1067.799488406507	736.856202509232	331.532373361137	959.665823776418	634.888352324081	265.281893339564	1025.064316217216	545.554108560125	329.446790415628	1012.677598827970	477.959448696742	337.986554341117	980.096673113242	410.261904231207	329.279677271993	878.076137175732	305.702736318101	278.104795246464	917.745792618705	189.335994115766	349.310119534819	1124.977141789479	417.974389651818	579.883491022466	1063.872378743353	309.180910551061	643.952682473225	1128.554669592923	218.562625519307	595.092972444886	1024.917916123746	42.595744680333	572.319023241012	1192.442692266111	102.959793684647	608.347122078093	1108.976501451858	37.540764039838	646.238273184742	1314.637583553358	57.332141041818	634.663972371522	780.824123246789	39.775337706509	395.956121892994	852.353085165177	35.400139569388	313.297789366721	937.009306425438	95.626519073334	338.915136468403	1064.463862553107	41.583363161156	306.571042918700	1058.351438994220	1089.018732401910	125.625690767684	1277.563018252804	946.593875197795	151.390046079639	879.683150855149	1122.423588002208	720.195776890124	896.424373741963	862.290047166128	749.761735650950	
76	7.096428571429	828.433772812084	1000.760177759914	446.456738048447	1013.274729632221	1429.066440082979	265.804682898823	1102.664499954806	1367.660140546042	437.583131305215	1000.838141193417	1440.980873348475	601.673789448133	987.252184268579	1494.571048832160	419.048206223867	1050.031157528299	941.473872475035	580.870196505507	1056.005621160452	962.702774284949	305.270010197792	1107.485208774190	745.875646142038	561.100422518680	1036.780339615346	633.027748652594	627.753663063932	1124.501628214432	584.409933975090	553.589653711992	1143.370250811840	503.376290201425	567.690679907765	1068.296743878192	736.199742275463	332.940827774829	958.746846753134	634.949548714134	267.172639965860	1023.825257642503	544.989742854287	330.672246845382	1011.129425896171	477.137973888846	339.112239531929	977.733049331992	409.837402378817	330.320697137742	874.488191931884	306.441935098395	279.117531921406	913.376599878427	189.280703645217	349.555635180986	1123.077165935724	416.005469478820	579.467238710034	1060.805736923343	307.790567729733	643.581923721854	1123.653292325194	216.361731065848	593.889546680364	1017.038837274416	42.138133480344	571.502503192729	1185.266353153485	100.747904909317	606.491799837297	1101.146887909992	36.874113105127	645.361253404784	1307.250569828317	54.029707903573	633.048700572200	775.513514035136	40.179061211287	395.876073083058	847.077668595850	35.556329848040	313.340281994720	931.820584108495	95.714550450425	338.881200408452	1059.171598563949	41.391648279508	306.537934359192	1054.902153766120	1087.451780573543	129.878321353982	1272.066266809783	941.482959550124	154.200230716187	882.601760070752	1120.277122534565	722.754575607662	905.356103367298	860.203945480506	749.996289134411	
